# xmcd
#
# Track frame offsets: 
#        150
#        15674
#        33252
#        46485
#        57956
#        70557
#        82954
#        100044
#        114087
#        129091
#
# Disc length: 1938 seconds
#
# Revision: 0
# Processed by: cddbd v1.5.2PL0 Copyright (c) Steve Scherf et al.
# Submitted via: ExactAudioCopy v1.0b4
#
DISCID=6a07900a
DTITLE=T.G. Sheppard - Finally!
DYEAR=2006
DGENRE=Country
TTITLE0=Only One You
TTITLE1=Finally
TTITLE2=Crazy In The Dark
TTITLE3=Wasn't It A Short Forever
TTITLE4=All My Cloudy Days Are Gone
TTITLE5=In Another Minute
TTITLE6=We're Waking On Thin Ice
TTITLE7=You're The First To Last (This Long)
TTITLE8=She's Got Everything It Takes (To Make Me Stay)
TTITLE9=I Wish You Could Have Turned My Head (And Left My Heart Alone)
EXTD=
EXTT0=
EXTT1=
EXTT2=
EXTT3=
EXTT4=
EXTT5=
EXTT6=
EXTT7=
EXTT8=
EXTT9=
PLAYORDER=
